<svg xmlns="http://www.w3.org/2000/svg" width="30" height="30" viewBox="0 0 30 30" fill="none">
<path d="M0 0V30H30V0H0ZM15.8686 25.5631C15.4258 26.4629 14.5805 27.054 13.601 27.3394C12.096 27.685 10.6565 27.4879 9.5856 26.8452C8.86896 26.4055 8.30928 25.7287 7.92936 24.949L10.2142 23.5498C10.2341 23.5582 10.2941 23.6666 10.3742 23.8068C10.6656 24.295 10.9169 24.6406 11.4108 24.8832C11.8961 25.0488 12.9614 25.1546 13.3728 24.3007C13.6241 23.8663 13.5442 22.47 13.5442 20.9251C13.5439 18.4975 13.5552 16.08 13.5552 13.68H16.3654C16.3654 16.32 16.3798 18.8203 16.3654 21.3965C16.3714 22.9757 16.5084 24.3835 15.8686 25.5631ZM27.5263 24.7692C26.5495 28.1105 21.1034 28.219 18.9271 26.0114C18.4673 25.4918 18.179 25.2204 17.9047 24.6206C19.0613 23.9554 19.0613 23.9554 20.1866 23.3042C20.7979 24.2438 21.3631 24.7606 22.38 24.972C23.7595 25.1405 25.1474 24.6665 24.8362 23.2013C24.5162 22.0046 22.0114 21.7135 20.3066 20.4338C18.576 19.2715 18.1704 16.4472 19.5926 14.8334C20.0666 14.2366 20.875 13.7911 21.7231 13.577L22.6082 13.4626C24.3077 13.4282 25.3699 13.877 26.1497 14.7478C26.3666 14.9676 26.5438 15.2047 26.875 15.7186C25.9697 16.2955 25.9726 16.29 24.6758 17.1295C24.3989 16.5329 23.9393 16.1585 23.4535 15.9958C22.6994 15.7673 21.7486 16.0157 21.5513 16.8125C21.4829 17.058 21.497 17.2865 21.6058 17.6921C21.9113 18.3888 22.9366 18.6917 23.8562 19.1143C26.5037 20.1881 27.3977 21.3394 27.6175 22.7098C27.8292 23.8896 27.5664 24.655 27.5263 24.7692Z" fill="#F0DB4F"/>
</svg>