<svg xmlns="http://www.w3.org/2000/svg" width="30" height="28" viewBox="0 0 30 28" fill="none">
<path d="M5.6425 18.7512C5.90625 18.8387 6.17 18.9275 6.44 19.0037C6.3525 19.355 6.27625 19.7012 6.205 20.0587C5.59 23.3112 6.07 25.8887 7.605 26.7737C9.1875 27.6875 11.8475 26.75 14.4375 24.4825C14.6425 24.3012 14.8475 24.1137 15.0525 23.9137C15.31 24.1662 15.58 24.4062 15.8488 24.64C18.3563 26.7962 20.835 27.6687 22.365 26.785C23.9475 25.8712 24.4625 23.1 23.795 19.725C23.7425 19.4675 23.6838 19.2037 23.6188 18.9337C23.8063 18.8812 23.9875 18.8225 24.17 18.7637C27.5513 17.645 30 15.8337 30 13.9762C30 12.2012 27.6912 10.4787 24.5037 9.38249V9.38124C24.1875 9.27624 23.8713 9.17624 23.555 9.08249C23.6075 8.86624 23.655 8.64874 23.7013 8.43249C24.4225 4.93999 23.9475 2.13499 22.3475 1.20874C20.8062 0.32374 18.2925 1.24374 15.75 3.45874C15.4975 3.67499 15.2525 3.90374 15.0175 4.13249C14.8588 3.97999 14.695 3.82749 14.5312 3.68124C11.865 1.31374 9.19375 0.31749 7.59375 1.24999C6.05875 2.14124 5.60125 4.78374 6.24625 8.08624C6.31125 8.41499 6.38125 8.73624 6.4625 9.06499C6.0875 9.16999 5.71875 9.28749 5.3725 9.41124C2.24375 10.495 0 12.2062 0 13.9762C0 15.805 2.39 17.6375 5.6425 18.7512ZM13.6112 23.525C12.645 24.41 11.525 25.1125 10.3062 25.5937C9.65625 25.9037 8.90625 25.9337 8.2375 25.67C7.30625 25.1312 6.91875 23.0625 7.44625 20.2787C7.51125 19.9512 7.58125 19.6225 7.6625 19.3C8.975 19.5812 10.2987 19.775 11.6412 19.8737C12.415 20.97 13.2638 22.0187 14.1725 23.0025C13.985 23.1837 13.7975 23.36 13.61 23.5237L13.6112 23.525ZM21.0525 12.5225C20.7775 12.0062 20.4963 11.4912 20.2025 10.9875C19.915 10.49 19.6162 9.99749 19.3062 9.51124C20.25 9.62874 21.1525 9.78624 21.9963 9.97999C21.7262 10.8475 21.41 11.6912 21.0525 12.5225ZM21.0637 15.44C21.4387 16.29 21.7675 17.1512 22.0537 18.0362C21.145 18.2412 20.2262 18.4 19.3 18.505C19.6162 18.0125 19.915 17.5087 20.2087 17.005C20.5075 16.4887 20.7887 15.9675 21.0637 15.44ZM20.3862 13.9825C19.9937 14.7912 19.5712 15.5875 19.1213 16.3725C18.6763 17.1512 18.2013 17.9075 17.7038 18.6575C16.8312 18.7225 15.9225 18.7512 15.0025 18.7512C14.0825 18.7512 13.1925 18.7225 12.3312 18.6687C11.8212 17.925 11.3412 17.1625 10.89 16.3837C10.4388 15.605 10.0225 14.8137 9.63 14.005H9.6275C10.0138 13.1962 10.4362 12.405 10.8813 11.6262C11.3263 10.8475 11.8075 10.0912 12.3112 9.34749C13.19 9.28249 14.0863 9.24749 15.0013 9.24749C15.9163 9.24749 16.8175 9.28249 17.6912 9.34749C18.1887 10.0862 18.6637 10.8412 19.115 11.615C19.5662 12.3887 19.9875 13.18 20.3862 13.9825ZM9.79 10.9987C9.5025 11.4962 9.22125 12.005 8.9575 12.5212C8.58875 11.6487 8.2775 10.7937 8.02 9.96749C8.86375 9.77999 9.76 9.62749 10.6913 9.50999C10.3825 9.99624 10.0775 10.4937 9.79 10.9987ZM8.95875 15.4862C9.22875 16.0025 9.50375 16.5125 9.79625 17.0162C10.095 17.5262 10.4 18.0362 10.7225 18.5337C9.80875 18.4337 8.9 18.2875 8.00375 18.0937C8.26125 17.25 8.58375 16.3775 8.95875 15.4862ZM15.0475 22.1C14.45 21.4562 13.8525 20.7425 13.2725 19.9737C13.835 19.9975 14.415 20.0087 15.0013 20.0087C15.605 20.0087 16.1962 19.9975 16.7825 19.9675C16.2437 20.7112 15.6637 21.4212 15.0475 22.1ZM22.7063 23.86C22.6525 24.5737 22.3013 25.2412 21.7388 25.6925C20.8075 26.2312 18.8212 25.5287 16.6763 23.6887C16.43 23.4775 16.1838 23.2487 15.9325 23.015C16.8288 22.025 17.655 20.9762 18.405 19.875C19.7463 19.7637 21.0825 19.5587 22.4012 19.26C22.46 19.5 22.5125 19.74 22.56 19.975C22.8475 21.2412 22.8938 22.5587 22.7063 23.86ZM23.215 10.29C23.52 10.3775 23.8125 10.4712 24.0938 10.565C26.8237 11.5025 28.74 12.8975 28.74 13.9637C28.74 15.1125 26.695 16.595 23.7712 17.5612C23.6075 17.6137 23.4437 17.6662 23.2738 17.7137C22.8637 16.4362 22.36 15.1887 21.78 13.975C22.3425 12.78 22.8175 11.5487 23.215 10.29ZM16.575 4.40749C18.7563 2.50999 20.7887 1.76624 21.715 2.29874C22.705 2.86749 23.0863 5.16374 22.465 8.18124C22.4237 8.37999 22.3825 8.57374 22.33 8.76749C21.0287 8.47499 19.7113 8.26374 18.3862 8.14624C17.625 7.05499 16.7925 6.01249 15.89 5.03374C16.1187 4.81749 16.3412 4.61249 16.575 4.40749ZM15.0125 5.93124C15.6275 6.59874 16.2075 7.30124 16.7463 8.02749C15.5863 7.97499 14.42 7.97499 13.26 8.02749C13.8337 7.27249 14.4263 6.56999 15.0125 5.93124ZM8.215 2.33999C9.2 1.76624 11.385 2.58624 13.6875 4.62499C13.8337 4.75374 13.98 4.89499 14.1325 5.03499C13.2238 6.01249 12.3863 7.05499 11.6187 8.14499C10.295 8.26249 8.9825 8.46749 7.68125 8.75499C7.605 8.45624 7.54125 8.15124 7.47625 7.84624C6.925 5.00999 7.28875 2.87249 8.215 2.33999ZM5.78375 10.6C6.1175 10.4825 6.4575 10.3775 6.7975 10.2775C7.19625 11.5487 7.67625 12.7975 8.2325 14.0037C7.67 15.2287 7.18375 16.4937 6.78 17.7825L6.77875 17.7837C6.5325 17.7137 6.2925 17.6375 6.0525 17.555C4.805 17.1625 3.38625 16.5412 2.36125 15.7275C1.77 15.3175 1.37125 14.685 1.26 13.975C1.26 12.9025 3.11125 11.5312 5.78375 10.6Z" fill="#53C1DE"/>
</svg>